<?xml version="1.0" standalone="no"?>
<!DOCTYPE svg PUBLIC "-//W3C//DTD SVG 20010904//EN"
 "http://www.w3.org/TR/2001/REC-SVG-20010904/DTD/svg10.dtd">
<svg version="1.0" xmlns="http://www.w3.org/2000/svg"
 width="200.000000pt" height="200.000000pt" viewBox="0 0 200.000000 200.000000"
 preserveAspectRatio="xMidYMid meet">

<g transform="translate(0.000000,200.000000) scale(0.100000,-0.100000)"
fill="#000000" stroke="none">
<path d="M880 1993 c-237 -37 -430 -132 -585 -288 -391 -390 -391 -1020 0
-1410 60 -61 182 -155 199 -155 4 0 6 70 6 155 0 84 5 178 11 207 25 119 112
248 207 309 l43 27 67 -31 c62 -30 75 -32 172 -32 97 0 110 2 172 32 l67 31
43 -27 c58 -37 131 -120 162 -184 45 -92 56 -158 56 -329 0 -87 3 -158 6 -158
10 0 125 85 176 129 120 106 244 320 289 496 33 128 33 341 1 469 -43 173
-142 347 -267 471 -148 149 -330 243 -540 280 -80 14 -224 18 -285 8z m260
-459 c251 -114 252 -478 2 -601 -49 -24 -69 -28 -142 -28 -73 0 -93 4 -142 28
-241 118 -252 464 -19 590 96 53 200 56 301 11z"/>
<path d="M930 1491 c-144 -47 -225 -189 -186 -324 33 -114 117 -185 229 -194
120 -10 209 38 261 141 68 133 17 289 -118 358 -44 22 -145 33 -186 19z"/>
<path d="M713 723 c-60 -55 -100 -117 -123 -191 -17 -54 -20 -93 -20 -251 l0
-186 73 -28 c131 -49 200 -61 357 -61 158 0 262 19 373 68 l57 25 0 184 c0
156 -3 195 -20 249 -22 73 -81 161 -135 202 l-36 28 -47 -20 c-112 -48 -236
-52 -349 -12 -32 12 -65 23 -73 26 -8 2 -34 -12 -57 -33z"/>
</g>
</svg>
