<?xml version="1.0" standalone="no"?>
<!DOCTYPE svg PUBLIC "-//W3C//DTD SVG 20010904//EN"
 "http://www.w3.org/TR/2001/REC-SVG-20010904/DTD/svg10.dtd">
<svg version="1.0" xmlns="http://www.w3.org/2000/svg"
 width="3919.000000pt" height="1689.000000pt" viewBox="0 0 3919.000000 1689.000000"
 preserveAspectRatio="xMidYMid meet">

<g transform="translate(0.000000,1689.000000) scale(0.100000,-0.100000)"
fill="#000000" stroke="none">
<path d="M20190 16873 c-589 -40 -1094 -160 -1544 -365 -675 -309 -1271 -852
-1698 -1545 -576 -935 -801 -2102 -613 -3181 91 -521 275 -985 551 -1390 46
-68 84 -125 84 -127 0 -10 -518 -116 -780 -159 -321 -52 -897 -126 -991 -126
l-36 0 -2 2942 c-1 1929 -5 2972 -11 3032 -21 183 -75 354 -144 459 -112 169
-317 275 -628 324 -140 22 -639 25 -813 5 -126 -15 -430 -57 -522 -73 l-63
-11 0 -1642 c0 -1975 11 -2546 61 -3175 6 -73 7 -137 2 -141 -4 -5 -18 -10
-31 -12 -21 -3 -29 12 -101 197 -145 370 -369 885 -531 1220 -86 177 -944
1912 -1278 2583 -94 189 -195 380 -226 425 -166 249 -361 403 -616 485 -291
95 -542 133 -870 133 -300 0 -522 -32 -765 -111 -232 -76 -379 -161 -516 -300
l-86 -88 -4 -1398 c-2 -770 -1 -2306 2 -3414 l5 -2015 23 -100 c91 -402 273
-567 718 -647 115 -20 158 -23 438 -23 188 0 353 5 420 13 135 16 521 71 553
79 l23 6 -4 1951 c-3 1233 -8 2032 -15 2171 -18 345 -42 737 -48 772 -4 30 -3
33 37 43 22 6 43 10 44 8 6 -6 43 -95 190 -453 250 -613 287 -692 1053 -2255
852 -1740 815 -1669 937 -1825 152 -194 333 -323 555 -393 133 -42 371 -89
552 -108 117 -12 211 -15 398 -11 258 6 408 21 595 62 75 17 184 29 345 40
508 34 1035 86 1530 151 510 67 1130 170 1314 220 50 13 141 31 201 40 61 9
162 31 225 49 140 41 211 57 360 84 95 17 259 55 332 77 9 3 20 14 23 24 9 27
42 35 70 16 13 -9 47 -65 81 -133 31 -65 63 -125 70 -133 12 -15 101 -158 136
-218 10 -18 51 -77 92 -130 40 -53 95 -135 121 -182 68 -120 113 -186 237
-343 60 -76 137 -179 171 -230 93 -140 142 -202 261 -327 111 -117 186 -218
186 -251 0 -10 27 -46 60 -80 l60 -61 -79 -192 c-127 -304 -193 -491 -803
-2271 -460 -1343 -432 -1257 -450 -1380 -24 -164 -9 -249 87 -505 177 -475
500 -1086 1013 -1920 125 -203 195 -328 243 -436 85 -190 181 -382 227 -454
46 -72 126 -149 130 -125 2 9 10 14 18 11 9 -3 14 1 14 12 0 10 13 31 30 47
16 15 37 51 46 78 9 27 29 70 45 96 15 25 53 119 83 208 30 89 61 172 70 185
36 55 205 535 305 868 38 124 92 324 121 445 29 121 82 342 117 490 183 757
251 1086 293 1419 25 195 23 291 -8 483 -51 320 -140 606 -392 1258 -175 454
-264 696 -375 1025 -142 420 -211 572 -307 676 l-38 41 102 194 c55 107 126
245 155 308 30 63 67 133 83 155 15 23 44 75 65 116 21 41 46 87 57 102 18 26
93 167 218 413 31 61 72 139 92 175 21 36 56 112 78 170 23 58 45 110 50 115
32 42 120 350 120 419 0 32 20 66 39 66 5 0 36 -9 69 -19 34 -11 459 -99 944
-195 1085 -216 1031 -205 1328 -282 1018 -266 1889 -412 2895 -483 470 -34
704 -43 1385 -53 360 -5 792 -12 960 -16 322 -8 380 -3 421 34 54 48 50 -171
52 3142 l2 3067 815 5 c800 5 816 6 893 27 126 36 231 96 317 183 88 88 131
158 171 272 45 132 62 258 61 463 0 137 -5 208 -21 300 -26 144 -95 355 -158
482 l-46 93 -2936 -2 -2936 -3 -80 -22 c-137 -39 -238 -95 -325 -182 -42 -42
-91 -101 -108 -131 -44 -79 -90 -223 -107 -337 -19 -126 -19 -388 0 -523 26
-182 98 -407 178 -555 l32 -60 985 -5 985 -5 0 -2509 0 -2510 -70 3 c-107 3
-500 30 -685 47 -766 70 -1398 178 -2180 375 -405 101 -470 119 -470 130 0 5
10 26 23 47 176 283 320 684 387 1076 24 143 75 593 90 801 15 195 15 679 0
870 -33 438 -93 746 -240 1233 -176 589 -395 978 -750 1332 -272 273 -552 471
-940 665 -704 353 -1485 529 -2310 523 -118 -1 -235 -3 -260 -5z m608 -1933
c517 -105 1028 -530 1299 -1081 104 -211 179 -456 220 -726 21 -137 24 -544 4
-683 -94 -683 -349 -1196 -837 -1686 -92 -92 -238 -208 -322 -255 -31 -18
-111 -65 -177 -104 -156 -94 -326 -187 -393 -215 -53 -23 -54 -23 -110 -5 -31
9 -111 40 -177 67 -66 27 -160 65 -208 83 -115 43 -197 93 -336 205 -63 50
-154 120 -203 154 -100 71 -274 258 -381 409 -199 280 -316 686 -358 1237 -15
197 -6 697 16 870 39 315 66 415 175 635 308 625 822 1034 1400 1115 94 13
272 4 388 -20z m1072 -4044 c0 -2 -8 -10 -17 -17 -16 -13 -17 -12 -4 4 13 16
21 21 21 13z m-80 -90 c0 -2 -8 -10 -17 -17 -16 -13 -17 -12 -4 4 13 16 21 21
21 13z"/>
<path d="M35905 16859 c-1179 -44 -2055 -418 -2565 -1097 -219 -291 -349 -626
-402 -1032 -15 -121 -15 -495 1 -625 60 -495 211 -828 521 -1149 220 -229 430
-376 775 -546 449 -221 808 -364 1510 -600 434 -146 611 -217 760 -305 172
-101 252 -186 296 -313 109 -317 -119 -662 -515 -776 -365 -106 -953 -96
-1420 24 -387 99 -841 311 -1151 537 l-89 66 -45 -24 c-128 -68 -361 -277
-465 -419 -261 -354 -255 -877 12 -1236 409 -550 1364 -864 2627 -864 1297 0
2215 306 2819 940 318 335 508 722 581 1185 23 142 30 461 16 625 -55 602
-271 1062 -672 1433 -334 308 -778 572 -1344 798 -157 63 -310 115 -1090 369
-404 132 -556 203 -670 315 -92 90 -110 135 -110 270 0 101 2 115 29 170 19
39 55 86 105 135 132 131 321 208 597 244 345 44 792 25 1184 -50 334 -65 754
-215 988 -354 l53 -31 133 133 c197 197 298 360 359 576 18 67 21 103 21 277
0 190 -1 204 -27 289 -50 160 -116 274 -226 390 -315 329 -891 542 -1681 621
-129 13 -650 38 -700 33 -8 -1 -105 -5 -215 -9z"/>
<path d="M800 16753 c-101 -7 -292 -32 -541 -69 l-247 -38 -6 -2170 c-4 -1194
-3 -2814 2 -3601 9 -1375 11 -1434 30 -1525 81 -383 254 -569 615 -660 188
-47 275 -55 607 -55 359 0 622 25 917 86 l103 22 1 1356 c1 746 4 1406 8 1466
l6 111 959 -1117 c527 -615 1011 -1175 1076 -1246 196 -212 480 -461 622 -544
308 -180 765 -230 1133 -124 242 70 506 248 645 435 129 175 210 419 210 637
l0 73 -402 432 c-222 238 -585 629 -808 868 -747 802 -1420 1535 -1420 1547 0
5 369 377 821 828 451 451 873 876 937 945 341 368 505 647 558 950 23 133 15
375 -15 479 -50 170 -141 320 -278 457 -249 249 -582 364 -1143 394 -187 10
-195 10 -210 -9 -8 -10 -616 -709 -1350 -1551 l-1335 -1533 -6 504 c-3 277 -7
784 -8 1126 -1 675 -7 767 -57 939 -85 295 -243 443 -566 529 -162 43 -285 56
-553 60 -137 1 -275 1 -305 -2z"/>
</g>
</svg>
